<svg id="Capa_1" enable-background="new 0 0 512 512" height="512" viewBox="0 0 512 512" width="512" xmlns="http://www.w3.org/2000/svg"><g><path d="m0 379c0 8.284 6.716 15 15 15h482c8.284 0 15-6.716 15-15v-25h-512z"/><path d="m376 454.074h-45v-30.074h-150v30.074h-45c-8.284 0-15 6.716-15 15s6.716 15 15 15h240c8.284 0 15-6.716 15-15s-6.716-15-15-15z"/><path d="m186.701 185.792c-13.438 0-24.37 10.933-24.37 24.371s10.933 24.37 24.37 24.37c13.438 0 24.371-10.933 24.371-24.37 0-13.438-10.932-24.371-24.371-24.371z"/><path d="m186.701 155.792c7.557 0 13.704-6.147 13.704-13.703s-6.147-13.703-13.704-13.703c-7.556 0-13.703 6.147-13.703 13.703s6.147 13.703 13.703 13.703z"/><path d="m497 27.926h-482c-8.284 0-15 6.716-15 15v281.074h512v-281.074c0-8.284-6.716-15-15-15zm-310.299 236.608c-29.98 0-54.37-24.39-54.37-54.37 0-16.739 7.608-31.73 19.542-41.712-5.565-7.334-8.875-16.468-8.875-26.363 0-24.098 19.605-43.703 43.703-43.703 24.099 0 43.704 19.605 43.704 43.703 0 9.895-3.311 19.029-8.875 26.363 11.935 9.981 19.542 24.973 19.542 41.712 0 29.98-24.39 54.37-54.371 54.37zm188.763-4.586c-2.943 3.051-6.868 4.585-10.797 4.585-3.749 0-7.501-1.396-10.413-4.205l-53.182-51.308v40.513c0 8.284-6.716 15-15 15s-15-6.716-15-15v-137.066c0-8.284 6.716-15 15-15s15 6.716 15 15v35.34l48.581-44.654c6.099-5.606 15.589-5.206 21.194.893 5.606 6.099 5.206 15.588-.893 21.194l-57.619 52.962 62.748 60.537c5.962 5.752 6.133 15.247.381 21.209z"/></g></svg>